<?xml version="1.0" encoding="utf-8"?>
<svg viewBox="0 0 283.4599914550781 283.4599914550781" width="283.4599914550781px" height="283.4599914550781px" xmlns="http://www.w3.org/2000/svg">
  <defs>
    <linearGradient id="gradient-1" gradientUnits="userSpaceOnUse" x1="141.73050689697266" y1="40.81800079345703" x2="141.73050689697266" y2="70.29800415039062">
      <stop style="stop-color: rgb(255, 255, 255);" offset="0"/>
      <stop style="stop-color: rgb(204, 204, 204);" offset="1"/>
    </linearGradient>
    <linearGradient id="gradient-2" gradientUnits="userSpaceOnUse" x1="141.73050689697266" y1="102.04499816894531" x2="141.73050689697266" y2="131.52499389648438">
      <stop style="stop-color: rgb(255, 255, 255);" offset="0"/>
      <stop style="stop-color: rgb(204, 204, 204);" offset="1"/>
    </linearGradient>
    <linearGradient id="gradient-3" gradientUnits="userSpaceOnUse" x1="141.73050689697266" y1="163.2729949951172" x2="141.73050689697266" y2="192.7530059814453">
      <stop style="stop-color: rgb(255, 255, 255);" offset="0"/>
      <stop style="stop-color: rgb(204, 204, 204);" offset="1"/>
    </linearGradient>
  </defs>
  <g transform="matrix(1, 0, 0, 1, 3.4734682559966927, 21.9986328125)">
    <path d=" M 230.16900634765625 40.81800079345703 C 230.16900634765625 40.81800079345703 53.29100036621094 40.81800079345703 53.29100036621094 40.81800079345703 C 45.15000057220459 40.81800079345703 38.55100059509277 47.41700077056885 38.55100059509277 55.558000564575195 C 38.55100059509277 63.69900035858154 45.15000057220459 70.29800033569336 53.29100036621094 70.29800033569336 C 53.29100036621094 70.29800033569336 230.1699981689453 70.29800033569336 230.1699981689453 70.29800033569336 C 238.31099796295166 70.29800033569336 244.90999794006348 63.69900035858154 244.90999794006348 55.558000564575195 C 244.90999794006348 47.41700077056885 238.30999755859375 40.81800079345703 230.16900634765625 40.81800079345703 Z" style="stroke: rgb(255, 255, 255); fill: rgb(255, 255, 255);"/>
    <path d=" M 230.16900634765625 102.04499816894531 C 230.16900634765625 102.04499816894531 53.29100036621094 102.04499816894531 53.29100036621094 102.04499816894531 C 45.15000057220459 102.04499816894531 38.55100059509277 108.64399814605713 38.55100059509277 116.78499794006348 C 38.55100059509277 124.92599773406982 45.15000057220459 131.52499771118164 53.29100036621094 131.52499771118164 C 53.29100036621094 131.52499771118164 230.1699981689453 131.52499771118164 230.1699981689453 131.52499771118164 C 238.31099796295166 131.52499771118164 244.90999794006348 124.92599773406982 244.90999794006348 116.78499794006348 C 244.91000366210938 108.6449966430664 238.30999755859375 102.04499816894531 230.16900634765625 102.04499816894531 Z" style="stroke: rgb(255, 255, 255); fill: rgb(255, 255, 255);"/>
    <path d=" M 244.91000366210938 178.01300048828125 C 244.91000366210938 169.8720006942749 238.3100037574768 163.2730007171631 230.1700038909912 163.2730007171631 C 230.1700038909912 163.2730007171631 53.29100036621094 163.2730007171631 53.29100036621094 163.2730007171631 C 45.15000057220459 163.2730007171631 38.55100059509277 169.87300062179565 38.55100059509277 178.01300048828125 C 38.55100059509277 186.15300035476685 45.15000057220459 192.7530002593994 53.29100036621094 192.7530002593994 C 53.29100036621094 192.7530002593994 230.1699981689453 192.7530002593994 230.1699981689453 192.7530002593994 C 238.30999755859375 192.7530059814453 244.91000366210938 186.1540069580078 244.91000366210938 178.01300048828125 Z" style="stroke: rgb(255, 255, 255); fill: rgb(255, 255, 255);"/>
  </g>
</svg>